<svg width="312" height="100" viewBox="0 0 312 100" fill="none" xmlns="http://www.w3.org/2000/svg">
<rect y="49.8198" width="45" height="45" transform="rotate(-45 0 49.8198)" fill="white"/>
<path d="M31.5 33.8198C30.154 33.8198 28.8632 34.3499 27.9114 35.2934C26.9597 36.237 26.425 37.5167 26.425 38.8511H29.325C29.325 38.2792 29.5542 37.7307 29.962 37.3264C30.3699 36.922 30.9232 36.6948 31.5 36.6948C32.0768 36.6948 32.6301 36.922 33.038 37.3264C33.4458 37.7307 33.675 38.2792 33.675 38.8511C33.675 39.4229 33.4458 39.9714 33.038 40.3758C32.6301 40.7801 32.0768 41.0073 31.5 41.0073C30.7025 41.0073 30.05 41.6542 30.05 42.4448V44.9604L17.58 54.2323C17.3365 54.4133 17.1567 54.6657 17.066 54.9537C16.9752 55.2417 16.9782 55.5507 17.0744 55.8369C17.1706 56.1231 17.3553 56.3721 17.6022 56.5485C17.8491 56.7249 18.1457 56.8198 18.45 56.8198H44.55C44.8543 56.8198 45.1509 56.7249 45.3978 56.5485C45.6447 56.3721 45.8294 56.1231 45.9256 55.8369C46.0218 55.5507 46.0248 55.2417 45.934 54.9537C45.8433 54.6657 45.6635 54.4133 45.42 54.2323L32.95 44.9604V43.6667C33.9964 43.3574 34.9142 42.7218 35.5673 41.8543C36.2203 40.9867 36.5737 39.9335 36.575 38.8511C36.575 37.5167 36.0403 36.237 35.0886 35.2934C34.1368 34.3499 32.846 33.8198 31.5 33.8198ZM31.5 47.4761L40.2 53.9448H22.8L31.5 47.4761Z" fill="black"/>
<path d="M85.779 55V14.231H108.848L108.022 20.013H93.567V32.226H106.134V38.008H93.567V55H85.779ZM133.301 55L130.764 45.56H117.253L114.716 55H106.633L119.318 14.231H128.935L141.561 55H133.301ZM118.787 39.66H129.171L123.979 20.19L118.787 39.66ZM157.845 13.346C160.717 13.346 163.214 13.759 165.338 14.585C167.462 15.411 169.449 16.6697 171.297 18.361L167.462 22.786C166.007 21.5667 164.532 20.6817 163.037 20.131C161.582 19.5803 160.009 19.305 158.317 19.305C156.429 19.305 154.895 19.7377 153.715 20.603C152.575 21.429 152.004 22.609 152.004 24.143C152.004 25.1657 152.221 26.0113 152.653 26.68C153.125 27.3487 153.951 27.978 155.131 28.568C156.311 29.158 158.062 29.807 160.382 30.515C164.394 31.7737 167.403 33.347 169.409 35.235C171.455 37.0837 172.477 39.7977 172.477 43.377C172.477 45.8157 171.848 47.979 170.589 49.867C169.37 51.755 167.6 53.23 165.279 54.292C162.959 55.354 160.205 55.885 157.019 55.885C153.912 55.885 151.119 55.3933 148.641 54.41C146.203 53.3873 144.098 52.0107 142.328 50.28L146.34 45.796C147.914 47.1333 149.546 48.156 151.237 48.864C152.929 49.5327 154.797 49.867 156.842 49.867C159.084 49.867 160.894 49.336 162.27 48.274C163.647 47.212 164.335 45.7173 164.335 43.79C164.335 42.61 164.099 41.6463 163.627 40.899C163.155 40.1123 162.349 39.424 161.208 38.834C160.068 38.2047 158.416 37.5557 156.252 36.887C151.926 35.5497 148.799 33.937 146.871 32.049C144.944 30.161 143.98 27.683 143.98 24.615C143.98 22.373 144.57 20.4063 145.75 18.715C146.93 17.0237 148.563 15.706 150.647 14.762C152.771 13.818 155.171 13.346 157.845 13.346ZM201.421 55V36.769H186.907V55H179.119V14.231H186.907V30.574H201.421V14.231H209.268V55H201.421ZM226.547 14.231V55H218.759V14.231H226.547ZM251.737 13.346C255.395 13.346 258.562 14.172 261.236 15.824C263.911 17.476 265.956 19.895 267.372 23.081C268.828 26.267 269.555 30.102 269.555 34.586C269.555 39.0307 268.828 42.846 267.372 46.032C265.917 49.218 263.852 51.6567 261.177 53.348C258.503 55.0393 255.356 55.885 251.737 55.885C248.079 55.885 244.913 55.059 242.238 53.407C239.564 51.755 237.499 49.336 236.043 46.15C234.588 42.964 233.86 39.129 233.86 34.645C233.86 30.2397 234.588 26.444 236.043 23.258C237.499 20.0327 239.564 17.5743 242.238 15.883C244.952 14.1917 248.119 13.346 251.737 13.346ZM251.737 19.305C248.591 19.305 246.191 20.544 244.539 23.022C242.887 25.4607 242.061 29.335 242.061 34.645C242.061 44.8323 245.287 49.926 251.737 49.926C254.884 49.926 257.264 48.7067 258.876 46.268C260.528 43.8293 261.354 39.9353 261.354 34.586C261.354 29.276 260.528 25.4017 258.876 22.963C257.264 20.5243 254.884 19.305 251.737 19.305ZM306.985 55H296.896L282.913 22.019C283.267 24.9297 283.523 27.565 283.68 29.925C283.877 32.285 283.975 35.0973 283.975 38.362V55H276.895V14.231H286.748L300.967 47.271C300.731 45.6977 300.495 43.6327 300.259 41.076C300.023 38.48 299.905 35.9037 299.905 33.347V14.231H306.985V55Z" fill="white"/>
<path d="M157 84L88 84" stroke="white" stroke-width="3"/>
<line x1="88.5" y1="83" x2="88.5" y2="61" stroke="white" stroke-width="3"/>
<path d="M242 84L306 84" stroke="white" stroke-width="3"/>
<line y1="-1.5" x2="22" y2="-1.5" transform="matrix(7.40417e-08 -1 -1 -2.58055e-08 304 83)" stroke="white" stroke-width="3"/>
<rect x="145" y="65" width="104" height="35" fill="white"/>
<path d="M168.675 74.6C169.725 74.6 170.625 74.7583 171.375 75.075C172.142 75.375 172.883 75.85 173.6 76.5L172.725 77.45C172.075 76.9 171.442 76.5 170.825 76.25C170.208 76 169.508 75.875 168.725 75.875C167.658 75.875 166.8 76.1417 166.15 76.675C165.5 77.1917 165.175 77.8917 165.175 78.775C165.175 79.375 165.292 79.875 165.525 80.275C165.775 80.6583 166.183 81.0083 166.75 81.325C167.317 81.625 168.125 81.9333 169.175 82.25C170.308 82.6 171.225 82.975 171.925 83.375C172.625 83.775 173.167 84.2917 173.55 84.925C173.933 85.5583 174.125 86.3583 174.125 87.325C174.125 88.2917 173.892 89.15 173.425 89.9C172.958 90.65 172.292 91.2333 171.425 91.65C170.575 92.0667 169.583 92.275 168.45 92.275C166.317 92.275 164.492 91.5583 162.975 90.125L163.825 89.175C164.525 89.775 165.233 90.2333 165.95 90.55C166.667 90.85 167.492 91 168.425 91C169.658 91 170.658 90.675 171.425 90.025C172.208 89.375 172.6 88.4917 172.6 87.375C172.6 86.675 172.467 86.1 172.2 85.65C171.95 85.2 171.533 84.8167 170.95 84.5C170.383 84.1667 169.575 83.8333 168.525 83.5C166.775 82.9667 165.525 82.35 164.775 81.65C164.025 80.95 163.65 80 163.65 78.8C163.65 78 163.858 77.2833 164.275 76.65C164.708 76 165.3 75.5 166.05 75.15C166.817 74.7833 167.692 74.6 168.675 74.6ZM186.991 74.875L186.816 76.2H181.791V92H180.316V76.2H175.241V74.875H186.991ZM194.99 74.6C196.39 74.6 197.615 74.9417 198.665 75.625C199.715 76.2917 200.532 77.2917 201.115 78.625C201.699 79.9583 201.99 81.5667 201.99 83.45C201.99 85.3 201.699 86.8917 201.115 88.225C200.549 89.5417 199.74 90.55 198.69 91.25C197.64 91.9333 196.407 92.275 194.99 92.275C193.607 92.275 192.39 91.9333 191.34 91.25C190.29 90.5667 189.474 89.5667 188.89 88.25C188.307 86.9333 188.015 85.3417 188.015 83.475C188.015 81.625 188.307 80.0333 188.89 78.7C189.474 77.3667 190.29 76.35 191.34 75.65C192.407 74.95 193.624 74.6 194.99 74.6ZM194.99 75.875C193.324 75.875 192.007 76.5167 191.04 77.8C190.074 79.0667 189.59 80.9583 189.59 83.475C189.59 85.9583 190.074 87.8333 191.04 89.1C192.024 90.3667 193.34 91 194.99 91C196.707 91 198.04 90.375 189.949 89.125C199.94 87.8583 200.415 85.9667 200.415 83.45C200.415 80.9167 199.932 79.025 189.9465 77.775C198.015 76.5083 196.69 75.875 194.99 75.875ZM211.35 84.325H207.925V92H206.425V74.875H210.575C214.642 74.875 216.675 76.425 216.675 79.525C216.675 80.7583 216.35 81.7417 215.7 82.475C215.05 83.2083 214.1 83.7333 212.85 84.05L217.55 92H215.775L211.35 84.325ZM210.775 83.1C213.642 83.1 215.075 81.9083 215.075 79.525C215.075 78.3583 214.717 77.5 214 76.95C213.284 76.3833 212.125 76.1 210.525 76.1H207.925V83.1H210.775ZM229.871 74.875L229.696 76.125H222.671V82.5H228.746V83.75H222.671V90.75H230.046V92H221.171V74.875H229.871Z" fill="black"/>
</svg>
