<svg width="94" height="73" viewBox="0 0 94 73" fill="none" xmlns="http://www.w3.org/2000/svg">
<path d="M70.172 72.6735L2.08658 43.1457C0.32184 42.3335 -0.475076 40.2506 0.291116 38.4539L11.8627 11.3281C12.2852 10.3379 13.0456 9.5334 14.0115 9.06732C16.2506 7.98816 20.5597 5.93623 23.7646 4.57665C27.1904 3.1223 31.7511 1.28697 34.186 0.314186C35.2786 -0.12289 36.4884 -0.105485 37.5618 0.376073C47.1959 4.69849 79.6755 18.1434 91.9979 24.0768C93.7377 24.9142 94.4732 26.9894 93.6839 28.759L74.9151 70.8749C74.1028 72.6967 71.9752 73.5032 70.172 72.6735Z" fill="url(#paint0_linear_4128_71920)"/>
<path d="M11.792 11.4905C12.8597 9.43468 15.333 8.51798 17.4895 9.43855L24.4658 12.4188C26.269 13.1885 28.3506 12.353 29.134 10.5467L32.4216 2.95976C33.3241 0.874945 35.6111 -0.175199 37.7273 0.430133C37.6774 0.408859 37.6274 0.387586 37.5775 0.366312C36.4964 -0.0997739 35.2789 -0.121048 34.1863 0.316029C31.7514 1.28881 27.1907 3.12415 23.7649 4.57849C20.3238 6.03863 16.1722 8.01902 14.0022 9.06916C13.0421 9.53524 12.2874 10.3359 11.8669 11.3222L11.7939 11.4924L11.792 11.4905Z" fill="url(#paint1_linear_4128_71920)"/>
<path d="M21.2291 24.0441V43.8205H15.9336V24.0441H21.2291ZM18.5441 13.8574C19.4888 13.8574 20.2595 14.1559 20.8562 14.753C21.4778 15.3251 21.7885 16.0589 21.7885 16.9545C21.7885 17.85 21.4778 18.5963 20.8562 19.1933C20.2595 19.7655 19.4888 20.0515 18.5441 20.0515C17.5993 20.0515 16.8286 19.7655 16.2319 19.1933C15.6353 18.5963 15.3369 17.85 15.3369 16.9545C15.3369 16.0589 15.6353 15.3251 16.2319 14.753C16.8286 14.1559 17.5993 13.8574 18.5441 13.8574Z" fill="white"/>
<path d="M37.4972 23.4471C39.2375 23.4471 40.5925 23.9819 41.5621 25.0516C42.5317 26.0964 43.0165 27.5516 43.0165 29.4173V43.8205H37.7209V30.3129C37.7209 29.2432 37.5345 28.4969 37.1615 28.074C36.8135 27.6263 36.2789 27.4024 35.558 27.4024C34.8121 27.4024 34.1284 27.6387 33.5069 28.1114C32.9102 28.5591 32.3259 29.2432 31.7541 30.1636V43.8205H26.4586V24.0441H31.0455L31.4558 26.5442C32.2762 25.5243 33.1712 24.7531 34.1408 24.2307C35.1353 23.7083 36.2541 23.4471 37.4972 23.4471Z" fill="white"/>
<path d="M64.245 24.0441L57.9053 43.8205H51.6028L45.1512 24.0441H50.8942L54.81 39.6787L58.8003 24.0441H64.245Z" fill="white"/>
<path d="M74.8352 23.4471C77.7938 23.4471 80.1059 24.38 81.7716 26.2457C83.4374 28.0865 84.2702 30.6487 84.2702 33.9323C84.2702 36.0219 83.8849 37.8627 83.1142 39.4548C82.3683 41.022 81.2744 42.2409 79.8324 43.1116C78.4153 43.9822 76.7371 44.4175 74.7979 44.4175C71.8394 44.4175 69.5148 43.4971 67.8242 41.6563C66.1585 39.7906 65.3256 37.216 65.3256 33.9323C65.3256 31.8427 65.6985 30.0144 66.4444 28.4472C67.2151 26.8551 68.309 25.6238 69.7261 24.7531C71.1681 23.8824 72.8711 23.4471 74.8352 23.4471ZM74.8352 27.4024C73.4927 27.4024 72.4858 27.9372 71.8145 29.0069C71.1681 30.0517 70.8449 31.6935 70.8449 33.9323C70.8449 36.1712 71.1681 37.8254 71.8145 38.8951C72.4858 39.9399 73.4803 40.4623 74.7979 40.4623C76.1156 40.4623 77.0976 39.9399 77.744 38.8951C78.4153 37.8254 78.7509 36.1712 78.7509 33.9323C78.7509 31.6935 78.4277 30.0517 77.7813 29.0069C77.1349 27.9372 76.1529 27.4024 74.8352 27.4024Z" fill="white"/>
<path d="M48.2488 50.265V51.6668H43.707V50.265H48.2488ZM44.9231 48.3025H46.8643V55.9458C46.8643 56.1819 46.8961 56.3639 46.9596 56.4918C47.023 56.6197 47.1183 56.7057 47.2452 56.75C47.3722 56.7943 47.5236 56.8164 47.6994 56.8164C47.8264 56.8164 47.9436 56.809 48.0511 56.7943C48.1585 56.7795 48.2488 56.7648 48.3221 56.75L48.3294 58.2108C48.1683 58.2649 47.9851 58.3092 47.78 58.3436C47.5798 58.378 47.3527 58.3952 47.0987 58.3952C46.6641 58.3952 46.2832 58.3215 45.956 58.1739C45.6288 58.0214 45.3748 57.778 45.1941 57.4435C45.0134 57.1041 44.9231 56.6566 44.9231 56.1008V48.3025Z" fill="white"/>
<path d="M49.2284 54.3375V54.1826C49.2284 53.5973 49.3114 53.0587 49.4775 52.5669C49.6435 52.0701 49.8853 51.6397 50.2027 51.2758C50.5201 50.9118 50.9084 50.629 51.3675 50.4273C51.8265 50.2207 52.3491 50.1175 52.9351 50.1175C53.5309 50.1175 54.0584 50.2207 54.5174 50.4273C54.9814 50.629 55.3721 50.9118 55.6895 51.2758C56.0069 51.6397 56.2487 52.0701 56.4147 52.5669C56.5808 53.0587 56.6638 53.5973 56.6638 54.1826V54.3375C56.6638 54.9179 56.5808 55.4565 56.4147 55.9532C56.2487 56.4451 56.0069 56.8754 55.6895 57.2443C55.3721 57.6083 54.9838 57.8911 54.5247 58.0928C54.0657 58.2944 53.5407 58.3952 52.9498 58.3952C52.3637 58.3952 51.8387 58.2944 51.3748 58.0928C50.9108 57.8911 50.5201 57.6083 50.2027 57.2443C49.8853 56.8754 49.6435 56.4451 49.4775 55.9532C49.3114 55.4565 49.2284 54.9179 49.2284 54.3375ZM51.1623 54.1826V54.3375C51.1623 54.6867 51.1965 55.0138 51.2649 55.3187C51.3333 55.6237 51.4383 55.8917 51.5799 56.1229C51.7215 56.3541 51.9047 56.5361 52.1293 56.6689C52.3588 56.7967 52.6323 56.8607 52.9498 56.8607C53.2623 56.8607 53.5309 56.7967 53.7556 56.6689C53.9802 56.5361 54.1633 56.3541 54.305 56.1229C54.4515 55.8917 54.5589 55.6237 54.6273 55.3187C54.6957 55.0138 54.7299 54.6867 54.7299 54.3375V54.1826C54.7299 53.8383 54.6957 53.5161 54.6273 53.2161C54.5589 52.9111 54.4515 52.6431 54.305 52.4119C54.1633 52.1758 53.9778 51.9914 53.7482 51.8586C53.5236 51.7209 53.2525 51.652 52.9351 51.652C52.6226 51.652 52.354 51.7209 52.1293 51.8586C51.9047 51.9914 51.7215 52.1758 51.5799 52.4119C51.4383 52.6431 51.3333 52.9111 51.2649 53.2161C51.1965 53.5161 51.1623 53.8383 51.1623 54.1826Z" fill="white"/>
<path d="M57.951 54.3375V54.1826C57.951 53.5973 58.034 53.0587 58.2001 52.5669C58.3661 52.0701 58.6079 51.6397 58.9253 51.2758C59.2428 50.9118 59.631 50.629 60.0901 50.4273C60.5491 50.2207 61.0717 50.1175 61.6577 50.1175C62.2535 50.1175 62.781 50.2207 63.24 50.4273C63.704 50.629 64.0947 50.9118 64.4121 51.2758C64.7295 51.6397 64.9713 52.0701 65.1373 52.5669C65.3034 53.0587 65.3864 53.5973 65.3864 54.1826V54.3375C65.3864 54.9179 65.3034 55.4565 65.1373 55.9532C64.9713 56.4451 64.7295 56.8754 64.4121 57.2443C64.0947 57.6083 63.7064 57.8911 63.2474 58.0928C62.7883 58.2944 62.2633 58.3952 61.6724 58.3952C61.0863 58.3952 60.5613 58.2944 60.0974 58.0928C59.6334 57.8911 59.2428 57.6083 58.9253 57.2443C58.6079 56.8754 58.3661 56.4451 58.2001 55.9532C58.034 55.4565 57.951 54.9179 57.951 54.3375ZM59.885 54.1826V54.3375C59.885 54.6867 59.9191 55.0138 59.9875 55.3187C60.0559 55.6237 60.1609 55.8917 60.3025 56.1229C60.4441 56.3541 60.6273 56.5361 60.8519 56.6689C61.0815 56.7967 61.3549 56.8607 61.6724 56.8607C61.9849 56.8607 62.2535 56.7967 62.4782 56.6689C62.7028 56.5361 62.886 56.3541 63.0276 56.1229C63.1741 55.8917 63.2815 55.6237 63.3499 55.3187C63.4183 55.0138 63.4525 54.6867 63.4525 54.3375V54.1826C63.4525 53.8383 63.4183 53.5161 63.3499 53.2161C63.2815 52.9111 63.1741 52.6431 63.0276 52.4119C62.886 52.1758 62.7004 51.9914 62.4709 51.8586C62.2462 51.7209 61.9752 51.652 61.6577 51.652C61.3452 51.652 61.0766 51.7209 60.8519 51.8586C60.6273 51.9914 60.4441 52.1758 60.3025 52.4119C60.1609 52.6431 60.0559 52.9111 59.9875 53.2161C59.9191 53.5161 59.885 53.8383 59.885 54.1826Z" fill="white"/>
<path d="M69.0691 46.9155V58.2477H67.1278V46.9155H69.0691Z" fill="white"/>
<path d="M75.4988 56.0639C75.4988 55.8967 75.4549 55.7466 75.367 55.6138C75.279 55.481 75.113 55.3605 74.8688 55.2523C74.6295 55.1392 74.2779 55.0335 73.8139 54.9351C73.4037 54.8466 73.0252 54.7359 72.6785 54.6031C72.3318 54.4703 72.0339 54.3104 71.7848 54.1235C71.5357 53.9317 71.3404 53.7079 71.1987 53.4522C71.062 53.1915 70.9936 52.8915 70.9936 52.5521C70.9936 52.2226 71.0644 51.9127 71.2061 51.6225C71.3477 51.3274 71.5528 51.0692 71.8214 50.8478C72.09 50.6216 72.4172 50.4445 72.803 50.3167C73.1888 50.1839 73.6235 50.1175 74.107 50.1175C74.7809 50.1175 75.3596 50.2281 75.8431 50.4494C76.3315 50.6708 76.7051 50.9757 76.9639 51.3643C77.2227 51.7479 77.3522 52.1808 77.3522 52.6628H75.4182C75.4182 52.4513 75.3694 52.2594 75.2717 52.0873C75.1789 51.9152 75.0349 51.7774 74.8395 51.6741C74.6442 51.5659 74.3975 51.5118 74.0996 51.5118C73.831 51.5118 73.6039 51.5561 73.4184 51.6446C73.2377 51.7332 73.1009 51.8488 73.0081 51.9914C72.9154 52.134 72.869 52.2914 72.869 52.4636C72.869 52.5914 72.8934 52.707 72.9422 52.8103C72.9959 52.9087 73.0814 52.9997 73.1986 53.0833C73.3158 53.1669 73.4745 53.2431 73.6748 53.312C73.8799 53.3809 74.1314 53.4473 74.4293 53.5112C75.0202 53.6292 75.5354 53.7866 75.975 53.9834C76.4194 54.1752 76.7661 54.431 77.0152 54.7507C77.2643 55.0704 77.3888 55.4786 77.3888 55.9754C77.3888 56.3295 77.3131 56.6541 77.1617 56.9492C77.0103 57.2394 76.7905 57.4927 76.5024 57.7091C76.2143 57.9255 75.87 58.0952 75.4695 58.2182C75.069 58.3362 74.6173 58.3952 74.1143 58.3952C73.3866 58.3952 72.7713 58.2649 72.2683 58.0042C71.7652 57.7386 71.3843 57.4042 71.1255 57.0009C70.8667 56.5926 70.7372 56.1696 70.7372 55.7319H72.5906C72.6052 56.0418 72.6883 56.2901 72.8397 56.477C72.991 56.6639 73.1815 56.7992 73.411 56.8828C73.6455 56.9615 73.8921 57.0009 74.1509 57.0009C74.4439 57.0009 74.6906 56.9615 74.8908 56.8828C75.091 56.7992 75.2424 56.6885 75.345 56.5508C75.4475 56.4082 75.4988 56.2459 75.4988 56.0639Z" fill="white"/>
<defs>
<linearGradient id="paint0_linear_4128_71920" x1="47" y1="0.782206" x2="47" y2="60.6346" gradientUnits="userSpaceOnUse">
<stop stop-color="#5B5B5B"/>
<stop offset="1" stop-color="#1E1E1E"/>
</linearGradient>
<linearGradient id="paint1_linear_4128_71920" x1="24.5791" y1="5.52033" x2="26.968" y2="11.2716" gradientUnits="userSpaceOnUse">
<stop stop-color="#FFC25A"/>
<stop offset="0.23" stop-color="#FFDDA4"/>
<stop offset="0.26" stop-color="#FFDDA4"/>
<stop offset="1" stop-color="#FFA100"/>
</linearGradient>
</defs>
</svg>
