<svg width="178" height="43" viewBox="0 0 178 43" fill="none" xmlns="http://www.w3.org/2000/svg">
<path d="M20.2812 29.8446H41.4788L30.0212 42.0223H8.9375L20.2812 29.8446ZM55 15.4073H11.4522L0 27.5925H43.5478L55 15.4073ZM24.9434 0.977539H46.0625L34.6564 13.1552H13.5212L24.9434 0.977539Z" fill="#202020"/>
<path d="M66.3643 37.0002V6.04018H70.2343V33.5802H84.6793V37.0002H66.3643Z" fill="#202020"/>
<path d="M102.188 37.3602C99.7881 37.3602 97.7931 37.2402 96.2031 37.0002C94.6431 36.7302 93.3981 36.2652 92.4681 35.6052C91.5681 34.9452 90.9081 34.0302 90.4881 32.8602C90.0681 31.6602 89.7981 30.1452 89.6781 28.3152C89.5581 26.4552 89.4981 24.1902 89.4981 21.5202C89.4981 18.8502 89.5581 16.6002 89.6781 14.7702C89.7981 12.9102 90.0681 11.3952 90.4881 10.2252C90.9081 9.02518 91.5681 8.09518 92.4681 7.43518C93.3981 6.77518 94.6431 6.32518 96.2031 6.08518C97.7931 5.81518 99.7881 5.68018 102.188 5.68018C104.588 5.68018 106.568 5.81518 108.128 6.08518C109.718 6.32518 110.963 6.77518 111.863 7.43518C112.793 8.09518 113.468 9.02518 113.888 10.2252C114.308 11.3952 114.578 12.9102 114.698 14.7702C114.818 16.6002 114.878 18.8502 114.878 21.5202C114.878 24.1902 114.818 26.4552 114.698 28.3152C114.578 30.1452 114.308 31.6602 113.888 32.8602C113.468 34.0302 112.793 34.9452 111.863 35.6052C110.963 36.2652 109.718 36.7302 108.128 37.0002C106.568 37.2402 104.588 37.3602 102.188 37.3602ZM102.188 34.0302C103.838 34.0302 105.203 33.9852 106.283 33.8952C107.363 33.7752 108.218 33.5202 108.848 33.1302C109.478 32.7402 109.958 32.1102 110.288 31.2402C110.618 30.3402 110.813 29.1102 110.873 27.5502C110.963 25.9902 111.008 23.9802 111.008 21.5202C111.008 19.0602 110.963 17.0502 110.873 15.4902C110.813 13.9302 110.618 12.7152 110.288 11.8452C109.958 10.9452 109.478 10.3002 108.848 9.91017C108.218 9.52018 107.363 9.28018 106.283 9.19018C105.203 9.07018 103.838 9.01018 102.188 9.01018C100.538 9.01018 99.1731 9.07018 98.0931 9.19018C97.0431 9.28018 96.1881 9.52018 95.5281 9.91017C94.8981 10.3002 94.4181 10.9452 94.0881 11.8452C93.7881 12.7152 93.5931 13.9302 93.5031 15.4902C93.4131 17.0502 93.3681 19.0602 93.3681 21.5202C93.3681 23.9802 93.4131 25.9902 93.5031 27.5502C93.5931 29.1102 93.7881 30.3402 94.0881 31.2402C94.4181 32.1102 94.8981 32.7402 95.5281 33.1302C96.1881 33.5202 97.0431 33.7752 98.0931 33.8952C99.1731 33.9852 100.538 34.0302 102.188 34.0302Z" fill="#202020"/>
<path d="M134.894 37.3602C132.704 37.3602 130.844 37.2402 129.314 37.0002C127.784 36.7302 126.524 36.2652 125.534 35.6052C124.574 34.9452 123.809 34.0302 123.239 32.8602C122.699 31.6602 122.309 30.1452 122.069 28.3152C121.859 26.4552 121.754 24.1902 121.754 21.5202C121.754 18.8502 121.859 16.6002 122.069 14.7702C122.309 12.9102 122.714 11.3952 123.284 10.2252C123.854 9.02518 124.634 8.09518 125.624 7.43518C126.614 6.77518 127.859 6.32518 129.359 6.08518C130.889 5.81518 132.734 5.68018 134.894 5.68018C135.914 5.68018 137.009 5.72518 138.179 5.81518C139.349 5.90518 140.489 6.01018 141.599 6.13018C142.739 6.25018 143.759 6.40018 144.659 6.58017V9.73018C143.699 9.58018 142.724 9.46018 141.734 9.37018C140.744 9.25018 139.814 9.16018 138.944 9.10018C138.104 9.04018 137.384 9.01018 136.784 9.01018C134.924 9.01018 133.334 9.05518 132.014 9.14518C130.724 9.23518 129.659 9.47518 128.819 9.86518C127.979 10.2552 127.334 10.9002 126.884 11.8002C126.434 12.6702 126.104 13.8852 125.894 15.4452C125.714 17.0052 125.624 19.0302 125.624 21.5202C125.624 23.7102 125.684 25.5552 125.804 27.0552C125.924 28.5252 126.164 29.7252 126.524 30.6552C126.914 31.5852 127.439 32.3052 128.099 32.8152C128.789 33.3252 129.689 33.6702 130.799 33.8502C131.939 34.0002 133.334 34.0752 134.984 34.0752C135.614 34.0752 136.304 34.0602 137.054 34.0302C137.804 34.0002 138.539 33.9552 139.259 33.8952C139.979 33.8352 140.579 33.7752 141.059 33.7152V23.6352H134.039V20.3502H144.794V36.4602C143.804 36.6402 142.709 36.8052 141.509 36.9552C140.339 37.0752 139.169 37.1652 137.999 37.2252C136.859 37.3152 135.824 37.3602 134.894 37.3602Z" fill="#202020"/>
<path d="M164.854 37.3602C162.454 37.3602 160.459 37.2402 158.869 37.0002C157.309 36.7302 156.064 36.2652 155.134 35.6052C154.234 34.9452 153.574 34.0302 153.154 32.8602C152.734 31.6602 152.464 30.1452 152.344 28.3152C152.224 26.4552 152.164 24.1902 152.164 21.5202C152.164 18.8502 152.224 16.6002 152.344 14.7702C152.464 12.9102 152.734 11.3952 153.154 10.2252C153.574 9.02518 154.234 8.09518 155.134 7.43518C156.064 6.77518 157.309 6.32518 158.869 6.08518C160.459 5.81518 162.454 5.68018 164.854 5.68018C167.254 5.68018 169.234 5.81518 170.794 6.08518C172.384 6.32518 173.629 6.77518 174.529 7.43518C175.459 8.09518 176.134 9.02518 176.554 10.2252C176.974 11.3952 177.244 12.9102 177.364 14.7702C177.484 16.6002 177.544 18.8502 177.544 21.5202C177.544 24.1902 177.484 26.4552 177.364 28.3152C177.244 30.1452 176.974 31.6602 176.554 32.8602C176.134 34.0302 175.459 34.9452 174.529 35.6052C173.629 36.2652 172.384 36.7302 170.794 37.0002C169.234 37.2402 167.254 37.3602 164.854 37.3602ZM164.854 34.0302C166.504 34.0302 167.869 33.9852 168.949 33.8952C170.029 33.7752 170.884 33.5202 171.514 33.1302C172.144 32.7402 172.624 32.1102 172.954 31.2402C173.284 30.3402 173.479 29.1102 173.539 27.5502C173.629 25.9902 173.674 23.9802 173.674 21.5202C173.674 19.0602 173.629 17.0502 173.539 15.4902C173.479 13.9302 173.284 12.7152 172.954 11.8452C172.624 10.9452 172.144 10.3002 171.514 9.91017C170.884 9.52018 170.029 9.28018 168.949 9.19018C167.869 9.07018 166.504 9.01018 164.854 9.01018C163.204 9.01018 161.839 9.07018 160.759 9.19018C159.709 9.28018 158.854 9.52018 158.194 9.91017C157.564 10.3002 157.084 10.9452 156.754 11.8452C156.454 12.7152 156.259 13.9302 156.169 15.4902C156.079 17.0502 156.034 19.0602 156.034 21.5202C156.034 23.9802 156.079 25.9902 156.169 27.5502C156.259 29.1102 156.454 30.3402 156.754 31.2402C157.084 32.1102 157.564 32.7402 158.194 33.1302C158.854 33.5202 159.709 33.7752 160.759 33.8952C161.839 33.9852 163.204 34.0302 164.854 34.0302Z" fill="#202020"/>
</svg>
