<svg width="178" height="42" viewBox="0 0 178 42" fill="none" xmlns="http://www.w3.org/2000/svg">
<path d="M20.2813 28.8671H41.4788L30.0212 41.0448H8.9375L20.2813 28.8671ZM55 14.4298H11.4522L0 26.615H43.5478L55 14.4298ZM24.9434 0H46.0625L34.6564 12.1777H13.5212L24.9434 0Z" fill="white"/>
<path d="M66.3643 36.0226V5.06264H70.2343V32.6026H84.6793V36.0226H66.3643Z" fill="white"/>
<path d="M102.188 36.3826C99.7881 36.3826 97.7931 36.2626 96.2031 36.0226C94.6431 35.7526 93.3981 35.2876 92.4681 34.6276C91.5681 33.9676 90.9081 33.0526 90.4881 31.8826C90.0681 30.6826 89.7981 29.1676 89.6781 27.3376C89.5581 25.4776 89.4981 23.2126 89.4981 20.5426C89.4981 17.8726 89.5581 15.6226 89.6781 13.7926C89.7981 11.9326 90.0681 10.4176 90.4881 9.24764C90.9081 8.04764 91.5681 7.11764 92.4681 6.45764C93.3981 5.79764 94.6431 5.34764 96.2031 5.10764C97.7931 4.83764 99.7881 4.70264 102.188 4.70264C104.588 4.70264 106.568 4.83764 108.128 5.10764C109.718 5.34764 110.963 5.79764 111.863 6.45764C112.793 7.11764 113.468 8.04764 113.888 9.24764C114.308 10.4176 114.578 11.9326 114.698 13.7926C114.818 15.6226 114.878 17.8726 114.878 20.5426C114.878 23.2126 114.818 25.4776 114.698 27.3376C114.578 29.1676 114.308 30.6826 113.888 31.8826C113.468 33.0526 112.793 33.9676 111.863 34.6276C110.963 35.2876 109.718 35.7526 108.128 36.0226C106.568 36.2626 104.588 36.3826 102.188 36.3826ZM102.188 33.0526C103.838 33.0526 105.203 33.0076 106.283 32.9176C107.363 32.7976 108.218 32.5426 108.848 32.1526C109.478 31.7626 109.958 31.1326 110.288 30.2626C110.618 29.3626 110.813 28.1326 110.873 26.5726C110.963 25.0126 111.008 23.0026 111.008 20.5426C111.008 18.0826 110.963 16.0726 110.873 14.5126C110.813 12.9526 110.618 11.7376 110.288 10.8676C109.958 9.96764 109.478 9.32264 108.848 8.93264C108.218 8.54264 107.363 8.30264 106.283 8.21264C105.203 8.09264 103.838 8.03264 102.188 8.03264C100.538 8.03264 99.1731 8.09264 98.0931 8.21264C97.0431 8.30264 96.1881 8.54264 95.5281 8.93264C94.8981 9.32264 94.4181 9.96764 94.0881 10.8676C93.7881 11.7376 93.5931 12.9526 93.5031 14.5126C93.4131 16.0726 93.3681 18.0826 93.3681 20.5426C93.3681 23.0026 93.4131 25.0126 93.5031 26.5726C93.5931 28.1326 93.7881 29.3626 94.0881 30.2626C94.4181 31.1326 94.8981 31.7626 95.5281 32.1526C96.1881 32.5426 97.0431 32.7976 98.0931 32.9176C99.1731 33.0076 100.538 33.0526 102.188 33.0526Z" fill="white"/>
<path d="M134.894 36.3826C132.704 36.3826 130.844 36.2626 129.314 36.0226C127.784 35.7526 126.524 35.2876 125.534 34.6276C124.574 33.9676 123.809 33.0526 123.239 31.8826C122.699 30.6826 122.309 29.1676 122.069 27.3376C121.859 25.4776 121.754 23.2126 121.754 20.5426C121.754 17.8726 121.859 15.6226 122.069 13.7926C122.309 11.9326 122.714 10.4176 123.284 9.24764C123.854 8.04764 124.634 7.11764 125.624 6.45764C126.614 5.79764 127.859 5.34764 129.359 5.10764C130.889 4.83764 132.734 4.70264 134.894 4.70264C135.914 4.70264 137.009 4.74764 138.179 4.83764C139.349 4.92764 140.489 5.03264 141.599 5.15264C142.739 5.27264 143.759 5.42264 144.659 5.60264V8.75264C143.699 8.60264 142.724 8.48264 141.734 8.39264C140.744 8.27264 139.814 8.18264 138.944 8.12264C138.104 8.06264 137.384 8.03264 136.784 8.03264C134.924 8.03264 133.334 8.07764 132.014 8.16764C130.724 8.25764 129.659 8.49764 128.819 8.88764C127.979 9.27764 127.334 9.92264 126.884 10.8226C126.434 11.6926 126.104 12.9076 125.894 14.4676C125.714 16.0276 125.624 18.0526 125.624 20.5426C125.624 22.7326 125.684 24.5776 125.804 26.0776C125.924 27.5476 126.164 28.7476 126.524 29.6776C126.914 30.6076 127.439 31.3276 128.099 31.8376C128.789 32.3476 129.689 32.6926 130.799 32.8726C131.939 33.0226 133.334 33.0976 134.984 33.0976C135.614 33.0976 136.304 33.0826 137.054 33.0526C137.804 33.0226 138.539 32.9776 139.259 32.9176C139.979 32.8576 140.579 32.7976 141.059 32.7376V22.6576H134.039V19.3726H144.794V35.4826C143.804 35.6626 142.709 35.8276 141.509 35.9776C140.339 36.0976 139.169 36.1876 137.999 36.2476C136.859 36.3376 135.824 36.3826 134.894 36.3826Z" fill="white"/>
<path d="M164.854 36.3826C162.454 36.3826 160.459 36.2626 158.869 36.0226C157.309 35.7526 156.064 35.2876 155.134 34.6276C154.234 33.9676 153.574 33.0526 153.154 31.8826C152.734 30.6826 152.464 29.1676 152.344 27.3376C152.224 25.4776 152.164 23.2126 152.164 20.5426C152.164 17.8726 152.224 15.6226 152.344 13.7926C152.464 11.9326 152.734 10.4176 153.154 9.24764C153.574 8.04764 154.234 7.11764 155.134 6.45764C156.064 5.79764 157.309 5.34764 158.869 5.10764C160.459 4.83764 162.454 4.70264 164.854 4.70264C167.254 4.70264 169.234 4.83764 170.794 5.10764C172.384 5.34764 173.629 5.79764 174.529 6.45764C175.459 7.11764 176.134 8.04764 176.554 9.24764C176.974 10.4176 177.244 11.9326 177.364 13.7926C177.484 15.6226 177.544 17.8726 177.544 20.5426C177.544 23.2126 177.484 25.4776 177.364 27.3376C177.244 29.1676 176.974 30.6826 176.554 31.8826C176.134 33.0526 175.459 33.9676 174.529 34.6276C173.629 35.2876 172.384 35.7526 170.794 36.0226C169.234 36.2626 167.254 36.3826 164.854 36.3826ZM164.854 33.0526C166.504 33.0526 167.869 33.0076 168.949 32.9176C170.029 32.7976 170.884 32.5426 171.514 32.1526C172.144 31.7626 172.624 31.1326 172.954 30.2626C173.284 29.3626 173.479 28.1326 173.539 26.5726C173.629 25.0126 173.674 23.0026 173.674 20.5426C173.674 18.0826 173.629 16.0726 173.539 14.5126C173.479 12.9526 173.284 11.7376 172.954 10.8676C172.624 9.96764 172.144 9.32264 171.514 8.93264C170.884 8.54264 170.029 8.30264 168.949 8.21264C167.869 8.09264 166.504 8.03264 164.854 8.03264C163.204 8.03264 161.839 8.09264 160.759 8.21264C159.709 8.30264 158.854 8.54264 158.194 8.93264C157.564 9.32264 157.084 9.96764 156.754 10.8676C156.454 11.7376 156.259 12.9526 156.169 14.5126C156.079 16.0726 156.034 18.0826 156.034 20.5426C156.034 23.0026 156.079 25.0126 156.169 26.5726C156.259 28.1326 156.454 29.3626 156.754 30.2626C157.084 31.1326 157.564 31.7626 158.194 32.1526C158.854 32.5426 159.709 32.7976 160.759 32.9176C161.839 33.0076 163.204 33.0526 164.854 33.0526Z" fill="white"/>
</svg>
