<svg width="117" height="90" viewBox="0 0 117 90" fill="none" xmlns="http://www.w3.org/2000/svg">
<path d="M87.13 89.5975L2.59083 53.1934C0.399617 52.1919 -0.589885 49.624 0.361468 47.409L14.7295 13.9662C15.2541 12.7454 16.1983 11.7535 17.3976 11.1789C20.1777 9.84842 25.5282 7.31863 29.5077 5.64244C33.7613 3.84942 39.4241 1.58668 42.4475 0.387353C43.8042 -0.151509 45.3063 -0.13005 46.6392 0.463652C58.6014 5.79266 98.9301 22.3686 114.23 29.6838C116.391 30.7162 117.304 33.2746 116.324 35.4563L93.0194 87.3801C92.0108 89.6261 89.3689 90.6204 87.13 89.5975Z" fill="url(#paint0_linear_413_146)"/>
<path d="M14.6413 14.1664C15.967 11.6318 19.038 10.5017 21.7156 11.6366L30.378 15.3109C32.6168 16.2598 35.2015 15.2298 36.1743 13.0028L40.2563 3.64905C41.3769 1.07873 44.2167 -0.215965 46.8442 0.530334C46.7822 0.504106 46.7202 0.477879 46.6582 0.451651C45.3158 -0.122976 43.8042 -0.149203 42.4475 0.389658C39.4241 1.58898 33.7613 3.85172 29.5077 5.64475C25.2349 7.44492 20.08 9.88649 17.3857 11.1812C16.1935 11.7558 15.2565 12.7429 14.7343 13.9589L14.6437 14.1688L14.6413 14.1664Z" fill="url(#paint1_linear_413_146)"/>
<path d="M26.3594 29.6432V54.025H19.7841V29.6432H26.3594ZM23.0254 17.0842C24.1985 17.0842 25.1555 17.4523 25.8963 18.1883C26.6681 18.8937 27.054 19.7984 27.054 20.9025C27.054 22.0066 26.6681 22.9267 25.8963 23.6627C25.1555 24.3681 24.1985 24.7208 23.0254 24.7208C21.8524 24.7208 20.8954 24.3681 20.1545 23.6627C19.4137 22.9267 19.0432 22.0066 19.0432 20.9025C19.0432 19.7984 19.4137 18.8937 20.1545 18.1883C20.8954 17.4523 21.8524 17.0842 23.0254 17.0842Z" fill="url(#paint2_linear_413_146)"/>
<path d="M46.5588 28.9071C48.7197 28.9071 50.4021 29.5665 51.606 30.8853C52.8099 32.1734 53.4119 33.9675 53.4119 36.2677V54.025H46.8366V37.3718C46.8366 36.053 46.6051 35.1329 46.1421 34.6116C45.7099 34.0595 45.0462 33.7835 44.1509 33.7835C43.2248 33.7835 42.3759 34.0749 41.6042 34.6576C40.8633 35.2096 40.1379 36.053 39.4278 37.1878V54.025H32.8526V29.6432H38.5481L39.0574 32.7254C40.0761 31.468 41.1874 30.5173 42.3914 29.8732C43.6262 29.2292 45.0153 28.9071 46.5588 28.9071Z" fill="url(#paint3_linear_413_146)"/>
<path d="M79.7706 29.6432L71.8988 54.025H64.0732L56.0625 29.6432H63.1935L68.0555 48.9187L73.0101 29.6432H79.7706Z" fill="url(#paint4_linear_413_146)"/>
<path d="M92.9201 28.9071C96.5936 28.9071 99.4645 30.0572 101.533 32.3574C103.601 34.6269 104.635 37.7858 104.635 41.8341C104.635 44.4103 104.157 46.6798 103.2 48.6426C102.274 50.5748 100.915 52.0776 99.1249 53.151C97.3654 54.2244 95.2816 54.7611 92.8738 54.7611C89.2003 54.7611 86.3139 53.6263 84.2148 51.3568C82.1465 49.0567 81.1123 45.8824 81.1123 41.8341C81.1123 39.2579 81.5754 37.0037 82.5015 35.0716C83.4585 33.1088 84.8167 31.5907 86.5763 30.5173C88.3668 29.4438 90.4814 28.9071 92.9201 28.9071ZM92.9201 33.7835C91.2531 33.7835 90.0029 34.4429 89.1694 35.7617C88.3668 37.0497 87.9655 39.0739 87.9655 41.8341C87.9655 44.5943 88.3668 46.6338 89.1694 47.9526C90.0029 49.2407 91.2377 49.8847 92.8738 49.8847C94.5099 49.8847 95.7292 49.2407 96.5319 47.9526C97.3654 46.6338 97.7821 44.5943 97.7821 41.8341C97.7821 39.0739 97.3808 37.0497 96.5782 35.7617C95.7756 34.4429 94.5562 33.7835 92.9201 33.7835Z" fill="url(#paint5_linear_413_146)"/>
<path d="M59.9094 61.9708V63.699H54.27V61.9708H59.9094ZM55.7799 59.5513H58.1903V68.9746C58.1903 69.2656 58.2297 69.49 58.3085 69.6477C58.3873 69.8053 58.5056 69.9114 58.6632 69.966C58.8209 70.0206 59.0089 70.0479 59.2272 70.0479C59.3848 70.0479 59.5304 70.0388 59.6638 70.0206C59.7972 70.0024 59.9094 69.9842 60.0003 69.966L60.0094 71.767C59.8093 71.8337 59.5819 71.8883 59.3272 71.9307C59.0786 71.9732 58.7966 71.9944 58.4813 71.9944C57.9416 71.9944 57.4686 71.9034 57.0624 71.7215C56.6561 71.5335 56.3408 71.2334 56.1164 70.821C55.892 70.4026 55.7799 69.8508 55.7799 69.1656V59.5513Z" fill="#1E1E1E"/>
<path d="M61.1256 66.9917V66.8007C61.1256 66.0791 61.2287 65.4151 61.4349 64.8087C61.6411 64.1962 61.9412 63.6657 62.3354 63.2169C62.7295 62.7682 63.2116 62.4195 63.7816 62.1709C64.3516 61.9162 65.0005 61.7889 65.7281 61.7889C66.4679 61.7889 67.1228 61.9162 67.6928 62.1709C68.2689 62.4195 68.754 62.7682 69.1481 63.2169C69.5423 63.6657 69.8425 64.1962 70.0486 64.8087C70.2548 65.4151 70.3579 66.0791 70.3579 66.8007V66.9917C70.3579 67.7072 70.2548 68.3712 70.0486 68.9837C69.8425 69.5901 69.5423 70.1206 69.1481 70.5754C68.754 71.0242 68.2719 71.3728 67.7019 71.6215C67.1319 71.8701 66.48 71.9944 65.7463 71.9944C65.0187 71.9944 64.3668 71.8701 63.7907 71.6215C63.2147 71.3728 62.7295 71.0242 62.3354 70.5754C61.9412 70.1206 61.6411 69.5901 61.4349 68.9837C61.2287 68.3712 61.1256 67.7072 61.1256 66.9917ZM63.5269 66.8007V66.9917C63.5269 67.4222 63.5694 67.8255 63.6543 68.2014C63.7392 68.5774 63.8695 68.9079 64.0454 69.1929C64.2213 69.4779 64.4486 69.7022 64.7276 69.866C65.0126 70.0236 65.3522 70.1025 65.7463 70.1025C66.1344 70.1025 66.4679 70.0236 66.7469 69.866C67.0258 69.7022 67.2532 69.4779 67.429 69.1929C67.611 68.9079 67.7444 68.5774 67.8293 68.2014C67.9142 67.8255 67.9566 67.4222 67.9566 66.9917V66.8007C67.9566 66.3762 67.9142 65.979 67.8293 65.6091C67.7444 65.2332 67.611 64.9027 67.429 64.6177C67.2532 64.3266 67.0228 64.0992 66.7378 63.9355C66.4588 63.7657 66.1223 63.6808 65.7281 63.6808C65.34 63.6808 65.0065 63.7657 64.7276 63.9355C64.4486 64.0992 64.2213 64.3266 64.0454 64.6177C63.8695 64.9027 63.7392 65.2332 63.6543 65.6091C63.5694 65.979 63.5269 66.3762 63.5269 66.8007Z" fill="#1E1E1E"/>
<path d="M71.9562 66.9917V66.8007C71.9562 66.0791 72.0593 65.4151 72.2655 64.8087C72.4716 64.1962 72.7718 63.6657 73.1659 63.2169C73.5601 62.7682 74.0422 62.4195 74.6122 62.1709C75.1822 61.9162 75.831 61.7889 76.5587 61.7889C77.2985 61.7889 77.9534 61.9162 78.5234 62.1709C79.0994 62.4195 79.5846 62.7682 79.9787 63.2169C80.3729 63.6657 80.673 64.1962 80.8792 64.8087C81.0854 65.4151 81.1884 66.0791 81.1884 66.8007V66.9917C81.1884 67.7072 81.0854 68.3712 80.8792 68.9837C80.673 69.5901 80.3729 70.1206 79.9787 70.5754C79.5846 71.0242 79.1025 71.3728 78.5325 71.6215C77.9625 71.8701 77.3106 71.9944 76.5769 71.9944C75.8492 71.9944 75.1973 71.8701 74.6213 71.6215C74.0452 71.3728 73.5601 71.0242 73.1659 70.5754C72.7718 70.1206 72.4716 69.5901 72.2655 68.9837C72.0593 68.3712 71.9562 67.7072 71.9562 66.9917ZM74.3575 66.8007V66.9917C74.3575 67.4222 74.3999 67.8255 74.4848 68.2014C74.5697 68.5774 74.7001 68.9079 74.876 69.1929C75.0518 69.4779 75.2792 69.7022 75.5581 69.866C75.8431 70.0236 76.1827 70.1025 76.5769 70.1025C76.965 70.1025 77.2985 70.0236 77.5774 69.866C77.8563 69.7022 78.0837 69.4779 78.2596 69.1929C78.4415 68.9079 78.5749 68.5774 78.6598 68.2014C78.7447 67.8255 78.7872 67.4222 78.7872 66.9917V66.8007C78.7872 66.3762 78.7447 65.979 78.6598 65.6091C78.5749 65.2332 78.4415 64.9027 78.2596 64.6177C78.0837 64.3266 77.8533 64.0992 77.5683 63.9355C77.2894 63.7657 76.9528 63.6808 76.5587 63.6808C76.1706 63.6808 75.8371 63.7657 75.5581 63.9355C75.2792 64.0992 75.0518 64.3266 74.876 64.6177C74.7001 64.9027 74.5697 65.2332 74.4848 65.6091C74.3999 65.979 74.3575 66.3762 74.3575 66.8007Z" fill="#1E1E1E"/>
<path d="M85.7611 57.8413V71.8125H83.3507V57.8413H85.7611Z" fill="#1E1E1E"/>
<path d="M93.7447 69.1201C93.7447 68.9139 93.6901 68.729 93.5809 68.5653C93.4718 68.4015 93.2656 68.253 92.9624 68.1196C92.6653 67.9801 92.2287 67.8497 91.6526 67.7285C91.1433 67.6193 90.6733 67.4829 90.2428 67.3191C89.8122 67.1554 89.4423 66.9583 89.1331 66.7279C88.8238 66.4914 88.5813 66.2155 88.4054 65.9002C88.2356 65.5788 88.1507 65.2089 88.1507 64.7905C88.1507 64.3842 88.2387 64.0022 88.4145 63.6444C88.5904 63.2806 88.8451 62.9622 89.1786 62.6894C89.5121 62.4104 89.9184 62.1921 90.3974 62.0345C90.8764 61.8708 91.4161 61.7889 92.0165 61.7889C92.8533 61.7889 93.5718 61.9253 94.1722 62.1982C94.7785 62.4711 95.2424 62.847 95.5638 63.3261C95.8852 63.7991 96.0459 64.3327 96.0459 64.9269H93.6446C93.6446 64.6662 93.584 64.4297 93.4627 64.2175C93.3475 64.0052 93.1686 63.8354 92.926 63.7081C92.6835 63.5747 92.3773 63.508 92.0074 63.508C91.6738 63.508 91.3919 63.5626 91.1614 63.6717C90.9371 63.7809 90.7673 63.9234 90.6521 64.0992C90.5369 64.2751 90.4793 64.4691 90.4793 64.6814C90.4793 64.839 90.5096 64.9815 90.5702 65.1089C90.6369 65.2301 90.743 65.3423 90.8886 65.4454C91.0341 65.5485 91.2312 65.6425 91.4798 65.7274C91.7345 65.8123 92.0468 65.8941 92.4167 65.973C93.1504 66.1185 93.7901 66.3125 94.3359 66.5551C94.8877 66.7916 95.3182 67.1069 95.6275 67.5011C95.9367 67.8952 96.0914 68.3985 96.0914 69.011C96.0914 69.4476 95.9974 69.8478 95.8094 70.2116C95.6214 70.5694 95.3486 70.8817 94.9908 71.1485C94.633 71.4153 94.2055 71.6245 93.7083 71.7761C93.211 71.9216 92.6501 71.9944 92.0256 71.9944C91.122 71.9944 90.358 71.8337 89.7334 71.5123C89.1088 71.1849 88.6359 70.7725 88.3145 70.2753C87.9931 69.772 87.8324 69.2505 87.8324 68.7108H90.1336C90.1518 69.0928 90.2549 69.399 90.4429 69.6295C90.6309 69.8599 90.8674 70.0267 91.1524 70.1297C91.4434 70.2268 91.7496 70.2753 92.071 70.2753C92.4349 70.2753 92.7411 70.2268 92.9897 70.1297C93.2383 70.0267 93.4263 69.8902 93.5536 69.7204C93.681 69.5446 93.7447 69.3445 93.7447 69.1201Z" fill="#1E1E1E"/>
<defs>
<linearGradient id="paint0_linear_413_146" x1="58.3582" y1="0.964363" x2="58.3582" y2="74.755" gradientUnits="userSpaceOnUse">
<stop stop-color="white"/>
<stop offset="1" stop-color="white"/>
</linearGradient>
<linearGradient id="paint1_linear_413_146" x1="30.5186" y1="6.80592" x2="33.449" y2="13.9113" gradientUnits="userSpaceOnUse">
<stop stop-color="#FFC25A"/>
<stop offset="0.23" stop-color="#FFDDA4"/>
<stop offset="0.26" stop-color="#FFDDA4"/>
<stop offset="1" stop-color="#FFA100"/>
</linearGradient>
<linearGradient id="paint2_linear_413_146" x1="61.8392" y1="17.0842" x2="61.8392" y2="54.7611" gradientUnits="userSpaceOnUse">
<stop stop-color="#5B5B5B"/>
<stop offset="1" stop-color="#1E1E1E"/>
</linearGradient>
<linearGradient id="paint3_linear_413_146" x1="61.8392" y1="17.0842" x2="61.8392" y2="54.7611" gradientUnits="userSpaceOnUse">
<stop stop-color="#5B5B5B"/>
<stop offset="1" stop-color="#1E1E1E"/>
</linearGradient>
<linearGradient id="paint4_linear_413_146" x1="61.8392" y1="17.0842" x2="61.8392" y2="54.7611" gradientUnits="userSpaceOnUse">
<stop stop-color="#5B5B5B"/>
<stop offset="1" stop-color="#1E1E1E"/>
</linearGradient>
<linearGradient id="paint5_linear_413_146" x1="61.8392" y1="17.0842" x2="61.8392" y2="54.7611" gradientUnits="userSpaceOnUse">
<stop stop-color="#5B5B5B"/>
<stop offset="1" stop-color="#1E1E1E"/>
</linearGradient>
</defs>
</svg>
